<?xml version="1.0" encoding="UTF-8" ?>
<svg version="1.1" width="96" height="80" xmlns="http://www.w3.org/2000/svg" shape-rendering="crispEdges">
<rect x="24" y="0" width="4" height="4" fill="#000000" />
<rect x="28" y="0" width="4" height="4" fill="#000000" />
<rect x="32" y="0" width="4" height="4" fill="#000000" />
<rect x="36" y="0" width="4" height="4" fill="#000000" />
<rect x="40" y="0" width="4" height="4" fill="#000000" />
<rect x="44" y="0" width="4" height="4" fill="#000000" />
<rect x="48" y="0" width="4" height="4" fill="#000000" />
<rect x="52" y="0" width="4" height="4" fill="#000000" />
<rect x="56" y="0" width="4" height="4" fill="#000000" />
<rect x="60" y="0" width="4" height="4" fill="#000000" />
<rect x="64" y="0" width="4" height="4" fill="#000000" />
<rect x="20" y="4" width="4" height="4" fill="#000000" />
<rect x="24" y="4" width="4" height="4" fill="#472F23" />
<rect x="28" y="4" width="4" height="4" fill="#472F23" />
<rect x="32" y="4" width="4" height="4" fill="#472F23" />
<rect x="36" y="4" width="4" height="4" fill="#472F23" />
<rect x="40" y="4" width="4" height="4" fill="#472F23" />
<rect x="44" y="4" width="4" height="4" fill="#472F23" />
<rect x="48" y="4" width="4" height="4" fill="#472F23" />
<rect x="52" y="4" width="4" height="4" fill="#472F23" />
<rect x="56" y="4" width="4" height="4" fill="#472F23" />
<rect x="60" y="4" width="4" height="4" fill="#000000" />
<rect x="64" y="4" width="4" height="4" fill="#7A482C" />
<rect x="68" y="4" width="4" height="4" fill="#000000" />
<rect x="16" y="8" width="4" height="4" fill="#000000" />
<rect x="20" y="8" width="4" height="4" fill="#472F23" />
<rect x="24" y="8" width="4" height="4" fill="#472F23" />
<rect x="28" y="8" width="4" height="4" fill="#472F23" />
<rect x="32" y="8" width="4" height="4" fill="#472F23" />
<rect x="36" y="8" width="4" height="4" fill="#472F23" />
<rect x="40" y="8" width="4" height="4" fill="#472F23" />
<rect x="44" y="8" width="4" height="4" fill="#472F23" />
<rect x="48" y="8" width="4" height="4" fill="#472F23" />
<rect x="52" y="8" width="4" height="4" fill="#472F23" />
<rect x="56" y="8" width="4" height="4" fill="#000000" />
<rect x="60" y="8" width="4" height="4" fill="#7A482C" />
<rect x="64" y="8" width="4" height="4" fill="#7A482C" />
<rect x="68" y="8" width="4" height="4" fill="#7A482C" />
<rect x="72" y="8" width="4" height="4" fill="#000000" />
<rect x="12" y="12" width="4" height="4" fill="#000000" />
<rect x="16" y="12" width="4" height="4" fill="#472F23" />
<rect x="20" y="12" width="4" height="4" fill="#472F23" />
<rect x="24" y="12" width="4" height="4" fill="#472F23" />
<rect x="28" y="12" width="4" height="4" fill="#472F23" />
<rect x="32" y="12" width="4" height="4" fill="#472F23" />
<rect x="36" y="12" width="4" height="4" fill="#472F23" />
<rect x="40" y="12" width="4" height="4" fill="#472F23" />
<rect x="44" y="12" width="4" height="4" fill="#472F23" />
<rect x="48" y="12" width="4" height="4" fill="#472F23" />
<rect x="52" y="12" width="4" height="4" fill="#000000" />
<rect x="56" y="12" width="4" height="4" fill="#7A482C" />
<rect x="60" y="12" width="4" height="4" fill="#7A482C" />
<rect x="64" y="12" width="4" height="4" fill="#000000" />
<rect x="68" y="12" width="4" height="4" fill="#7A482C" />
<rect x="72" y="12" width="4" height="4" fill="#7A482C" />
<rect x="76" y="12" width="4" height="4" fill="#000000" />
<rect x="8" y="16" width="4" height="4" fill="#000000" />
<rect x="12" y="16" width="4" height="4" fill="#472F23" />
<rect x="16" y="16" width="4" height="4" fill="#472F23" />
<rect x="20" y="16" width="4" height="4" fill="#472F23" />
<rect x="24" y="16" width="4" height="4" fill="#472F23" />
<rect x="28" y="16" width="4" height="4" fill="#472F23" />
<rect x="32" y="16" width="4" height="4" fill="#472F23" />
<rect x="36" y="16" width="4" height="4" fill="#472F23" />
<rect x="40" y="16" width="4" height="4" fill="#472F23" />
<rect x="44" y="16" width="4" height="4" fill="#472F23" />
<rect x="48" y="16" width="4" height="4" fill="#000000" />
<rect x="52" y="16" width="4" height="4" fill="#7A482C" />
<rect x="56" y="16" width="4" height="4" fill="#7A482C" />
<rect x="60" y="16" width="4" height="4" fill="#000000" />
<rect x="64" y="16" width="4" height="4" fill="#7A7053" />
<rect x="68" y="16" width="4" height="4" fill="#000000" />
<rect x="72" y="16" width="4" height="4" fill="#7A482C" />
<rect x="76" y="16" width="4" height="4" fill="#7A482C" />
<rect x="80" y="16" width="4" height="4" fill="#000000" />
<rect x="4" y="20" width="4" height="4" fill="#000000" />
<rect x="8" y="20" width="4" height="4" fill="#472F23" />
<rect x="12" y="20" width="4" height="4" fill="#472F23" />
<rect x="16" y="20" width="4" height="4" fill="#472F23" />
<rect x="20" y="20" width="4" height="4" fill="#472F23" />
<rect x="24" y="20" width="4" height="4" fill="#472F23" />
<rect x="28" y="20" width="4" height="4" fill="#472F23" />
<rect x="32" y="20" width="4" height="4" fill="#472F23" />
<rect x="36" y="20" width="4" height="4" fill="#472F23" />
<rect x="40" y="20" width="4" height="4" fill="#472F23" />
<rect x="44" y="20" width="4" height="4" fill="#000000" />
<rect x="48" y="20" width="4" height="4" fill="#7A482C" />
<rect x="52" y="20" width="4" height="4" fill="#7A482C" />
<rect x="56" y="20" width="4" height="4" fill="#000000" />
<rect x="60" y="20" width="4" height="4" fill="#7A7053" />
<rect x="64" y="20" width="4" height="4" fill="#8E856A" />
<rect x="68" y="20" width="4" height="4" fill="#7A7053" />
<rect x="72" y="20" width="4" height="4" fill="#000000" />
<rect x="76" y="20" width="4" height="4" fill="#7A482C" />
<rect x="80" y="20" width="4" height="4" fill="#7A482C" />
<rect x="84" y="20" width="4" height="4" fill="#000000" />
<rect x="0" y="24" width="4" height="4" fill="#000000" />
<rect x="4" y="24" width="4" height="4" fill="#000000" />
<rect x="8" y="24" width="4" height="4" fill="#000000" />
<rect x="12" y="24" width="4" height="4" fill="#000000" />
<rect x="16" y="24" width="4" height="4" fill="#000000" />
<rect x="20" y="24" width="4" height="4" fill="#000000" />
<rect x="24" y="24" width="4" height="4" fill="#000000" />
<rect x="28" y="24" width="4" height="4" fill="#000000" />
<rect x="32" y="24" width="4" height="4" fill="#000000" />
<rect x="36" y="24" width="4" height="4" fill="#000000" />
<rect x="40" y="24" width="4" height="4" fill="#000000" />
<rect x="44" y="24" width="4" height="4" fill="#7A482C" />
<rect x="48" y="24" width="4" height="4" fill="#7A482C" />
<rect x="52" y="24" width="4" height="4" fill="#000000" />
<rect x="56" y="24" width="4" height="4" fill="#7A7053" />
<rect x="60" y="24" width="4" height="4" fill="#8E856A" />
<rect x="64" y="24" width="4" height="4" fill="#8E856A" />
<rect x="68" y="24" width="4" height="4" fill="#8E856A" />
<rect x="72" y="24" width="4" height="4" fill="#7A7053" />
<rect x="76" y="24" width="4" height="4" fill="#000000" />
<rect x="80" y="24" width="4" height="4" fill="#7A482C" />
<rect x="84" y="24" width="4" height="4" fill="#7A482C" />
<rect x="88" y="24" width="4" height="4" fill="#000000" />
<rect x="4" y="28" width="4" height="4" fill="#000000" />
<rect x="8" y="28" width="4" height="4" fill="#1C130E" />
<rect x="12" y="28" width="4" height="4" fill="#1C130E" />
<rect x="16" y="28" width="4" height="4" fill="#1C130E" />
<rect x="20" y="28" width="4" height="4" fill="#1C130E" />
<rect x="24" y="28" width="4" height="4" fill="#1C130E" />
<rect x="28" y="28" width="4" height="4" fill="#1C130E" />
<rect x="32" y="28" width="4" height="4" fill="#1C130E" />
<rect x="36" y="28" width="4" height="4" fill="#1C130E" />
<rect x="40" y="28" width="4" height="4" fill="#7A482C" />
<rect x="44" y="28" width="4" height="4" fill="#7A482C" />
<rect x="48" y="28" width="4" height="4" fill="#000000" />
<rect x="52" y="28" width="4" height="4" fill="#7A7053" />
<rect x="56" y="28" width="4" height="4" fill="#8E856A" />
<rect x="60" y="28" width="4" height="4" fill="#8E856A" />
<rect x="64" y="28" width="4" height="4" fill="#8E856A" />
<rect x="68" y="28" width="4" height="4" fill="#8E856A" />
<rect x="72" y="28" width="4" height="4" fill="#8E856A" />
<rect x="76" y="28" width="4" height="4" fill="#7A7053" />
<rect x="80" y="28" width="4" height="4" fill="#000000" />
<rect x="84" y="28" width="4" height="4" fill="#7A482C" />
<rect x="88" y="28" width="4" height="4" fill="#000000" />
<rect x="8" y="32" width="4" height="4" fill="#000000" />
<rect x="12" y="32" width="4" height="4" fill="#000000" />
<rect x="16" y="32" width="4" height="4" fill="#000000" />
<rect x="20" y="32" width="4" height="4" fill="#000000" />
<rect x="24" y="32" width="4" height="4" fill="#000000" />
<rect x="28" y="32" width="4" height="4" fill="#000000" />
<rect x="32" y="32" width="4" height="4" fill="#000000" />
<rect x="36" y="32" width="4" height="4" fill="#000000" />
<rect x="40" y="32" width="4" height="4" fill="#000000" />
<rect x="44" y="32" width="4" height="4" fill="#000000" />
<rect x="48" y="32" width="4" height="4" fill="#7A7053" />
<rect x="52" y="32" width="4" height="4" fill="#8E856A" />
<rect x="56" y="32" width="4" height="4" fill="#8E856A" />
<rect x="60" y="32" width="4" height="4" fill="#8E856A" />
<rect x="64" y="32" width="4" height="4" fill="#8E856A" />
<rect x="68" y="32" width="4" height="4" fill="#8E856A" />
<rect x="72" y="32" width="4" height="4" fill="#8E856A" />
<rect x="76" y="32" width="4" height="4" fill="#8E856A" />
<rect x="80" y="32" width="4" height="4" fill="#000000" />
<rect x="84" y="32" width="4" height="4" fill="#000000" />
<rect x="12" y="36" width="4" height="4" fill="#000000" />
<rect x="16" y="36" width="4" height="4" fill="#322E25" />
<rect x="20" y="36" width="4" height="4" fill="#322E25" />
<rect x="24" y="36" width="4" height="4" fill="#322E25" />
<rect x="28" y="36" width="4" height="4" fill="#322E25" />
<rect x="32" y="36" width="4" height="4" fill="#322E25" />
<rect x="36" y="36" width="4" height="4" fill="#322E25" />
<rect x="40" y="36" width="4" height="4" fill="#322E25" />
<rect x="44" y="36" width="4" height="4" fill="#7A7053" />
<rect x="48" y="36" width="4" height="4" fill="#8E856A" />
<rect x="52" y="36" width="4" height="4" fill="#8E856A" />
<rect x="56" y="36" width="4" height="4" fill="#8E856A" />
<rect x="60" y="36" width="4" height="4" fill="#8E856A" />
<rect x="64" y="36" width="4" height="4" fill="#8E856A" />
<rect x="68" y="36" width="4" height="4" fill="#8E856A" />
<rect x="72" y="36" width="4" height="4" fill="#8E856A" />
<rect x="76" y="36" width="4" height="4" fill="#8E856A" />
<rect x="80" y="36" width="4" height="4" fill="#000000" />
<rect x="12" y="40" width="4" height="4" fill="#000000" />
<rect x="16" y="40" width="4" height="4" fill="#4F4A3B" />
<rect x="20" y="40" width="4" height="4" fill="#4F4A3B" />
<rect x="24" y="40" width="4" height="4" fill="#4F4A3B" />
<rect x="28" y="40" width="4" height="4" fill="#4F4A3B" />
<rect x="32" y="40" width="4" height="4" fill="#4F4A3B" />
<rect x="36" y="40" width="4" height="4" fill="#4F4A3B" />
<rect x="40" y="40" width="4" height="4" fill="#4F4A3B" />
<rect x="44" y="40" width="4" height="4" fill="#8E856A" />
<rect x="48" y="40" width="4" height="4" fill="#8E856A" />
<rect x="52" y="40" width="4" height="4" fill="#8E856A" />
<rect x="56" y="40" width="4" height="4" fill="#8E856A" />
<rect x="60" y="40" width="4" height="4" fill="#8E856A" />
<rect x="64" y="40" width="4" height="4" fill="#8E856A" />
<rect x="68" y="40" width="4" height="4" fill="#8E856A" />
<rect x="72" y="40" width="4" height="4" fill="#8E856A" />
<rect x="76" y="40" width="4" height="4" fill="#8E856A" />
<rect x="80" y="40" width="4" height="4" fill="#000000" />
<rect x="12" y="44" width="4" height="4" fill="#000000" />
<rect x="16" y="44" width="4" height="4" fill="#4F4A3B" />
<rect x="20" y="44" width="4" height="4" fill="#000000" />
<rect x="24" y="44" width="4" height="4" fill="#000000" />
<rect x="28" y="44" width="4" height="4" fill="#000000" />
<rect x="32" y="44" width="4" height="4" fill="#000000" />
<rect x="36" y="44" width="4" height="4" fill="#000000" />
<rect x="40" y="44" width="4" height="4" fill="#4F4A3B" />
<rect x="44" y="44" width="4" height="4" fill="#8E856A" />
<rect x="48" y="44" width="4" height="4" fill="#8E856A" />
<rect x="52" y="44" width="4" height="4" fill="#000000" />
<rect x="56" y="44" width="4" height="4" fill="#000000" />
<rect x="60" y="44" width="4" height="4" fill="#000000" />
<rect x="64" y="44" width="4" height="4" fill="#000000" />
<rect x="68" y="44" width="4" height="4" fill="#000000" />
<rect x="72" y="44" width="4" height="4" fill="#8E856A" />
<rect x="76" y="44" width="4" height="4" fill="#8E856A" />
<rect x="80" y="44" width="4" height="4" fill="#000000" />
<rect x="12" y="48" width="4" height="4" fill="#000000" />
<rect x="16" y="48" width="4" height="4" fill="#4F4A3B" />
<rect x="20" y="48" width="4" height="4" fill="#000000" />
<rect x="24" y="48" width="4" height="4" fill="#C49E28" />
<rect x="28" y="48" width="4" height="4" fill="#FFD836" />
<rect x="32" y="48" width="4" height="4" fill="#FFD836" />
<rect x="36" y="48" width="4" height="4" fill="#000000" />
<rect x="40" y="48" width="4" height="4" fill="#4F4A3B" />
<rect x="44" y="48" width="4" height="4" fill="#8E856A" />
<rect x="48" y="48" width="4" height="4" fill="#8E856A" />
<rect x="52" y="48" width="4" height="4" fill="#000000" />
<rect x="56" y="48" width="4" height="4" fill="#C49E28" />
<rect x="60" y="48" width="4" height="4" fill="#FFD836" />
<rect x="64" y="48" width="4" height="4" fill="#FFD836" />
<rect x="68" y="48" width="4" height="4" fill="#000000" />
<rect x="72" y="48" width="4" height="4" fill="#8E856A" />
<rect x="76" y="48" width="4" height="4" fill="#8E856A" />
<rect x="80" y="48" width="4" height="4" fill="#000000" />
<rect x="12" y="52" width="4" height="4" fill="#000000" />
<rect x="16" y="52" width="4" height="4" fill="#4F4A3B" />
<rect x="20" y="52" width="4" height="4" fill="#000000" />
<rect x="24" y="52" width="4" height="4" fill="#C49E28" />
<rect x="28" y="52" width="4" height="4" fill="#FFD836" />
<rect x="32" y="52" width="4" height="4" fill="#FFD836" />
<rect x="36" y="52" width="4" height="4" fill="#000000" />
<rect x="40" y="52" width="4" height="4" fill="#4F4A3B" />
<rect x="44" y="52" width="4" height="4" fill="#8E856A" />
<rect x="48" y="52" width="4" height="4" fill="#8E856A" />
<rect x="52" y="52" width="4" height="4" fill="#000000" />
<rect x="56" y="52" width="4" height="4" fill="#C49E28" />
<rect x="60" y="52" width="4" height="4" fill="#FFD836" />
<rect x="64" y="52" width="4" height="4" fill="#FFD836" />
<rect x="68" y="52" width="4" height="4" fill="#000000" />
<rect x="72" y="52" width="4" height="4" fill="#8E856A" />
<rect x="76" y="52" width="4" height="4" fill="#8E856A" />
<rect x="80" y="52" width="4" height="4" fill="#000000" />
<rect x="12" y="56" width="4" height="4" fill="#000000" />
<rect x="16" y="56" width="4" height="4" fill="#4F4A3B" />
<rect x="20" y="56" width="4" height="4" fill="#000000" />
<rect x="24" y="56" width="4" height="4" fill="#C49E28" />
<rect x="28" y="56" width="4" height="4" fill="#FFD836" />
<rect x="32" y="56" width="4" height="4" fill="#FFD836" />
<rect x="36" y="56" width="4" height="4" fill="#000000" />
<rect x="40" y="56" width="4" height="4" fill="#4F4A3B" />
<rect x="44" y="56" width="4" height="4" fill="#8E856A" />
<rect x="48" y="56" width="4" height="4" fill="#8E856A" />
<rect x="52" y="56" width="4" height="4" fill="#000000" />
<rect x="56" y="56" width="4" height="4" fill="#C49E28" />
<rect x="60" y="56" width="4" height="4" fill="#FFD836" />
<rect x="64" y="56" width="4" height="4" fill="#FFD836" />
<rect x="68" y="56" width="4" height="4" fill="#000000" />
<rect x="72" y="56" width="4" height="4" fill="#8E856A" />
<rect x="76" y="56" width="4" height="4" fill="#8E856A" />
<rect x="80" y="56" width="4" height="4" fill="#000000" />
<rect x="12" y="60" width="4" height="4" fill="#000000" />
<rect x="16" y="60" width="4" height="4" fill="#4F4A3B" />
<rect x="20" y="60" width="4" height="4" fill="#000000" />
<rect x="24" y="60" width="4" height="4" fill="#000000" />
<rect x="28" y="60" width="4" height="4" fill="#000000" />
<rect x="32" y="60" width="4" height="4" fill="#000000" />
<rect x="36" y="60" width="4" height="4" fill="#000000" />
<rect x="40" y="60" width="4" height="4" fill="#4F4A3B" />
<rect x="44" y="60" width="4" height="4" fill="#8E856A" />
<rect x="48" y="60" width="4" height="4" fill="#8E856A" />
<rect x="52" y="60" width="4" height="4" fill="#000000" />
<rect x="56" y="60" width="4" height="4" fill="#C49E28" />
<rect x="60" y="60" width="4" height="4" fill="#FFD836" />
<rect x="64" y="60" width="4" height="4" fill="#FFD836" />
<rect x="68" y="60" width="4" height="4" fill="#000000" />
<rect x="72" y="60" width="4" height="4" fill="#8E856A" />
<rect x="76" y="60" width="4" height="4" fill="#8E856A" />
<rect x="80" y="60" width="4" height="4" fill="#000000" />
<rect x="12" y="64" width="4" height="4" fill="#000000" />
<rect x="16" y="64" width="4" height="4" fill="#4F4A3B" />
<rect x="20" y="64" width="4" height="4" fill="#4F4A3B" />
<rect x="24" y="64" width="4" height="4" fill="#4F4A3B" />
<rect x="28" y="64" width="4" height="4" fill="#4F4A3B" />
<rect x="32" y="64" width="4" height="4" fill="#4F4A3B" />
<rect x="36" y="64" width="4" height="4" fill="#4F4A3B" />
<rect x="40" y="64" width="4" height="4" fill="#4F4A3B" />
<rect x="44" y="64" width="4" height="4" fill="#8E856A" />
<rect x="48" y="64" width="4" height="4" fill="#8E856A" />
<rect x="52" y="64" width="4" height="4" fill="#000000" />
<rect x="56" y="64" width="4" height="4" fill="#C49E28" />
<rect x="60" y="64" width="4" height="4" fill="#FFD836" />
<rect x="64" y="64" width="4" height="4" fill="#FFD836" />
<rect x="68" y="64" width="4" height="4" fill="#000000" />
<rect x="72" y="64" width="4" height="4" fill="#8E856A" />
<rect x="76" y="64" width="4" height="4" fill="#8E856A" />
<rect x="80" y="64" width="4" height="4" fill="#000000" />
<rect x="12" y="68" width="4" height="4" fill="#000000" />
<rect x="16" y="68" width="4" height="4" fill="#4F4A3B" />
<rect x="20" y="68" width="4" height="4" fill="#4F4A3B" />
<rect x="24" y="68" width="4" height="4" fill="#4F4A3B" />
<rect x="28" y="68" width="4" height="4" fill="#4F4A3B" />
<rect x="32" y="68" width="4" height="4" fill="#4F4A3B" />
<rect x="36" y="68" width="4" height="4" fill="#4F4A3B" />
<rect x="40" y="68" width="4" height="4" fill="#4F4A3B" />
<rect x="44" y="68" width="4" height="4" fill="#8E856A" />
<rect x="48" y="68" width="4" height="4" fill="#8E856A" />
<rect x="52" y="68" width="4" height="4" fill="#000000" />
<rect x="56" y="68" width="4" height="4" fill="#C49E28" />
<rect x="60" y="68" width="4" height="4" fill="#FFD836" />
<rect x="64" y="68" width="4" height="4" fill="#FFD836" />
<rect x="68" y="68" width="4" height="4" fill="#000000" />
<rect x="72" y="68" width="4" height="4" fill="#8E856A" />
<rect x="76" y="68" width="4" height="4" fill="#8E856A" />
<rect x="80" y="68" width="4" height="4" fill="#000000" />
<rect x="8" y="72" width="4" height="4" fill="#000000" />
<rect x="12" y="72" width="4" height="4" fill="#000000" />
<rect x="16" y="72" width="4" height="4" fill="#000000" />
<rect x="20" y="72" width="4" height="4" fill="#000000" />
<rect x="24" y="72" width="4" height="4" fill="#000000" />
<rect x="28" y="72" width="4" height="4" fill="#000000" />
<rect x="32" y="72" width="4" height="4" fill="#000000" />
<rect x="36" y="72" width="4" height="4" fill="#000000" />
<rect x="40" y="72" width="4" height="4" fill="#000000" />
<rect x="44" y="72" width="4" height="4" fill="#000000" />
<rect x="48" y="72" width="4" height="4" fill="#000000" />
<rect x="52" y="72" width="4" height="4" fill="#000000" />
<rect x="56" y="72" width="4" height="4" fill="#000000" />
<rect x="60" y="72" width="4" height="4" fill="#000000" />
<rect x="64" y="72" width="4" height="4" fill="#000000" />
<rect x="68" y="72" width="4" height="4" fill="#000000" />
<rect x="72" y="72" width="4" height="4" fill="#000000" />
<rect x="76" y="72" width="4" height="4" fill="#000000" />
<rect x="80" y="72" width="4" height="4" fill="#000000" />
<rect x="84" y="72" width="4" height="4" fill="#000000" />
<rect x="4" y="76" width="4" height="4" fill="#000000" />
<rect x="8" y="76" width="4" height="4" fill="#000000" />
<rect x="12" y="76" width="4" height="4" fill="#000000" />
<rect x="16" y="76" width="4" height="4" fill="#000000" />
<rect x="20" y="76" width="4" height="4" fill="#000000" />
<rect x="24" y="76" width="4" height="4" fill="#000000" />
<rect x="28" y="76" width="4" height="4" fill="#000000" />
<rect x="32" y="76" width="4" height="4" fill="#000000" />
<rect x="36" y="76" width="4" height="4" fill="#000000" />
<rect x="40" y="76" width="4" height="4" fill="#000000" />
<rect x="44" y="76" width="4" height="4" fill="#000000" />
<rect x="48" y="76" width="4" height="4" fill="#000000" />
<rect x="52" y="76" width="4" height="4" fill="#000000" />
<rect x="56" y="76" width="4" height="4" fill="#000000" />
<rect x="60" y="76" width="4" height="4" fill="#000000" />
<rect x="64" y="76" width="4" height="4" fill="#000000" />
<rect x="68" y="76" width="4" height="4" fill="#000000" />
<rect x="72" y="76" width="4" height="4" fill="#000000" />
<rect x="76" y="76" width="4" height="4" fill="#000000" />
<rect x="80" y="76" width="4" height="4" fill="#000000" />
<rect x="84" y="76" width="4" height="4" fill="#000000" />
<rect x="88" y="76" width="4" height="4" fill="#000000" />
</svg>